<svg xmlns="http://www.w3.org/2000/svg" width="32" height="32" viewBox="0 0 32 32">
  <rect width="32" height="32" fill="#030712"/>
  <rect x="2" y="2" width="28" height="28" fill="none" stroke="#2563eb" stroke-width="1.5"/>
  <rect x="5" y="5" width="22" height="22" fill="none" stroke="#1e3a5c" stroke-width="1"/>
  <g transform="translate(16,16)">
    <rect x="-6" y="-6" width="12" height="12" fill="none" stroke="#dc2626" stroke-width="1"/>
    <rect x="-6" y="-6" width="12" height="12" fill="none" stroke="#2563eb" stroke-width="0.8" transform="rotate(45)"/>
    <circle cx="0" cy="0" r="2" fill="#dc2626"/>
  </g>
  <rect x="3" y="3" width="4" height="4" fill="none" stroke="#2563eb" stroke-width="0.8"/>
  <rect x="25" y="3" width="4" height="4" fill="none" stroke="#2563eb" stroke-width="0.8"/>
  <rect x="3" y="25" width="4" height="4" fill="none" stroke="#2563eb" stroke-width="0.8"/>
  <rect x="25" y="25" width="4" height="4" fill="none" stroke="#2563eb" stroke-width="0.8"/>
  <rect x="14" y="2" width="4" height="3" fill="#dc2626" opacity="0.6"/>
  <rect x="14" y="27" width="4" height="3" fill="#dc2626" opacity="0.6"/>
  <rect x="2" y="14" width="3" height="4" fill="#dc2626" opacity="0.6"/>
  <rect x="27" y="14" width="3" height="4" fill="#dc2626" opacity="0.6"/>
  <circle cx="8" cy="8" r="1" fill="#2563eb" opacity="0.5"/>
  <circle cx="24" cy="8" r="1" fill="#2563eb" opacity="0.5"/>
  <circle cx="8" cy="24" r="1" fill="#2563eb" opacity="0.5"/>
  <circle cx="24" cy="24" r="1" fill="#2563eb" opacity="0.5"/>
</svg>
